<?xml version="1.0" standalone="no"?>
<!DOCTYPE svg PUBLIC "-//W3C//DTD SVG 20010904//EN"
 "http://www.w3.org/TR/2001/REC-SVG-20010904/DTD/svg10.dtd">
<svg version="1.0" xmlns="http://www.w3.org/2000/svg"
 width="91.000000pt" height="91.000000pt" viewBox="0 0 91.000000 91.000000"
 preserveAspectRatio="xMidYMid meet">
<metadata>
Created by potrace 1.14, written by Peter Selinger 2001-2017
</metadata>
<g transform="translate(0.000000,91.000000) scale(0.100000,-0.100000)"
fill="#000000" stroke="none">
<path d="M326 745 c-4 -14 -11 -25 -16 -25 -6 0 -10 -7 -10 -15 0 -8 -5 -15
-11 -15 -5 0 -8 -4 -4 -9 3 -5 1 -12 -5 -16 -6 -3 -18 -23 -29 -43 -25 -51
-74 -136 -80 -142 -4 -3 -19 -30 -35 -60 -16 -30 -32 -57 -35 -60 -4 -3 -12
-16 -18 -30 -7 -14 -26 -47 -42 -75 -17 -27 -30 -55 -31 -62 0 -9 30 -12 111
-11 l111 2 15 31 c9 16 20 33 25 36 5 3 9 9 8 13 0 4 25 52 57 109 32 56 57
105 56 109 -1 3 4 9 12 12 10 3 17 -3 21 -19 3 -14 9 -25 13 -25 3 0 17 -21
31 -47 13 -27 27 -50 30 -53 10 -10 40 -68 40 -79 0 -7 -35 -11 -103 -11 -101
0 -104 -1 -115 -25 -24 -52 -25 -51 168 -51 159 1 180 3 180 17 0 9 -7 22 -15
29 -8 7 -12 16 -9 21 3 5 0 9 -5 9 -6 0 -11 7 -11 15 0 8 -4 15 -10 15 -5 0
-10 4 -10 9 0 14 -192 341 -200 341 -7 0 -140 -225 -140 -237 0 -3 -9 -16 -20
-30 -11 -14 -17 -29 -14 -34 3 -5 1 -9 -4 -9 -4 0 -16 -15 -24 -34 -15 -31
-61 -55 -72 -37 -2 3 25 55 60 114 35 60 64 110 64 113 0 2 18 33 40 69 22 36
40 70 40 75 0 6 4 10 8 10 4 0 13 14 19 31 10 25 9 37 -2 60 -21 39 -32 43
-39 14z"/>
<path d="M630 670 c-20 -12 -21 -69 -2 -104 9 -17 16 -33 15 -36 0 -3 7 -13
17 -23 15 -16 18 -16 23 -2 4 8 3 15 -2 15 -4 0 -8 7 -8 15 0 25 14 17 36 -20
19 -32 41 -47 41 -27 0 5 11 21 24 37 l24 27 -2 -55 c-2 -43 2 -58 14 -63 18
-8 43 -5 50 6 4 7 5 197 1 220 -1 3 -16 7 -33 8 -28 2 -37 -4 -55 -33 -13 -19
-23 -40 -23 -47 -1 -18 -50 40 -50 58 0 8 -4 15 -10 15 -20 3 -25 4 -35 11 -6
4 -17 3 -25 -2z"/>
</g>
</svg>
